<svg xmlns="http://www.w3.org/2000/svg" width="107" height="80" fill="none" viewBox="0 0 107 80"><g clip-path="url(#clip0_7975_4998)"><path fill="#4285F4" d="M7.29545 79.9999H24.3182V38.7878L0 20.606V72.7272C0 76.7514 3.2708 79.9999 7.29545 79.9999Z"/><path fill="#34A853" d="M82.6816 79.9999H99.7044C103.741 79.9999 107 76.7393 107 72.7272V20.606L82.6816 38.7878"/><path fill="#FBBC04" d="M82.6816 7.27261V38.7878L107 20.6059V10.909C107 1.91503 96.7011 -3.21224 89.4907 2.1817"/><path fill="#EA4335" d="M24.3184 38.7879V7.27271L53.5002 29.0909L82.682 7.27271V38.7879L53.5002 60.606"/><path fill="#C5221F" d="M0 10.909V20.6059L24.3182 38.7878V7.27261L17.5091 2.1817C10.2866 -3.21224 0 1.91503 0 10.909Z"/></g><defs><clipPath id="clip0_7975_4998"><rect width="107" height="80" fill="#fff"/></clipPath></defs></svg>